<!-- Generator: Adobe Illustrator 22.1.0, SVG Export Plug-In  -->
<svg version="1.1"
	 xmlns="http://www.w3.org/2000/svg" xmlns:xlink="http://www.w3.org/1999/xlink" xmlns:a="http://ns.adobe.com/AdobeSVGViewerExtensions/3.0/"
	 x="0px" y="0px" width="674.271px" height="582.637px" viewBox="0 0 674.271 582.637"
	 style="enable-background:new 0 0 674.271 582.637;" xml:space="preserve">
<style type="text/css">
	.st0{fill:#B3B4B4;stroke:#000000;stroke-miterlimit:10;}
	.st1{fill:#5E5E5F;}
	.st2{fill:#8F4520;stroke:#8E3E1E;stroke-miterlimit:10;}
	.st3{font-family:'AndaleMono';}
	.st4{font-size:72px;}
</style>
<defs>
</defs>
<rect x="0.5" y="0.5" class="st0" width="588.638" height="519.762"/>
<g>
	<path d="M80.384,121.125H57.849v-5.027h8.543V76.547h-8.543v-5.027h22.535v5.027h-8.227v39.551h8.227V121.125z"/>
	<path d="M130.798,76.195h-15.293v44.93h-5.73v-44.93H94.411v-4.676h36.387V76.195z"/>
	<path d="M155.267,79.289c-1.243-0.141-2.262-0.638-3.059-1.494c-0.797-0.855-1.195-1.846-1.195-2.971
		c0-1.195,0.392-2.203,1.178-3.023c0.785-0.82,1.763-1.23,2.936-1.23c1.312,0,2.443,0.533,3.393,1.6
		c0.949,1.067,1.424,2.361,1.424,3.885c0,4.57-2.543,8.145-7.629,10.723l-1.371-2.531C153.825,82.84,155.267,81.187,155.267,79.289z
		"/>
	<path d="M209.548,77.004c-2.953-1.007-5.754-1.512-8.402-1.512c-3,0-5.444,0.686-7.33,2.057c-1.887,1.371-2.83,3.322-2.83,5.854
		c0,3,2.473,5.637,7.418,7.91c3.656,1.688,6.076,2.86,7.26,3.516c1.183,0.656,2.385,1.559,3.604,2.707
		c1.218,1.148,2.197,2.502,2.936,4.061c0.738,1.559,1.107,3.311,1.107,5.256c0,4.829-1.623,8.573-4.869,11.232
		c-3.247,2.66-7.072,3.99-11.479,3.99c-4.266,0-8.004-0.844-11.215-2.531l1.195-4.957c3.773,1.711,7.066,2.566,9.879,2.566
		c3.281,0,5.912-0.849,7.893-2.549c1.98-1.699,2.971-4.037,2.971-7.014c0-2.203-0.645-4.072-1.934-5.607
		c-1.289-1.535-3.668-3.099-7.137-4.693c-3.563-1.64-5.866-2.76-6.908-3.357c-1.043-0.598-2.08-1.424-3.111-2.479
		c-1.032-1.055-1.828-2.238-2.391-3.551c-0.562-1.312-0.844-2.742-0.844-4.289c0-4.101,1.477-7.3,4.43-9.598
		c2.953-2.297,6.691-3.445,11.215-3.445c3.305,0,6.586,0.504,9.844,1.512L209.548,77.004z"/>
	<path d="M89.103,207.525h-6.047l-5.484-17.367H61.294l-5.555,17.367h-5.977l16.207-49.605h6.926L89.103,207.525z M75.919,185.13
		l-6.504-20.531l-6.469,20.531H75.919z"/>
	<path d="M126.966,207.525h-27v-49.605h5.766v44.578h21.234V207.525z"/>
	<path d="M170.173,207.525h-27v-49.605h5.766v44.578h21.234V207.525z"/>
	<path d="M89.103,293.925h-6.047l-5.484-17.367H61.294l-5.555,17.367h-5.977L65.97,244.32h6.926L89.103,293.925z M75.919,271.531
		l-6.504-20.531l-6.469,20.531H75.919z"/>
	<path d="M118.529,266.714c3.305,0.773,5.894,2.273,7.77,4.5c1.875,2.227,2.813,4.875,2.813,7.945c0,4.5-1.635,8.086-4.904,10.758
		s-7.202,4.008-11.795,4.008H98.314V244.32h13.746c4.781,0,8.52,1.049,11.215,3.146c2.695,2.098,4.043,5.057,4.043,8.877
		c0,2.344-0.779,4.43-2.338,6.258c-1.559,1.828-3.709,3.152-6.451,3.973V266.714z M104.079,264.042h6.75
		c7.054,0,10.582-2.52,10.582-7.559c0-2.297-0.867-4.061-2.602-5.291c-1.735-1.23-4.277-1.846-7.629-1.846h-7.102V264.042z
		 M104.079,288.898h6.539c3.82,0,6.85-0.867,9.088-2.602c2.238-1.734,3.357-4.113,3.357-7.137c0-3.211-1.102-5.695-3.305-7.453
		c-2.203-1.758-5.391-2.637-9.562-2.637h-6.117V288.898z"/>
	<path d="M155.689,243.37c5.555,0,9.791,2.197,12.709,6.592s4.377,10.787,4.377,19.178c0,8.344-1.454,14.719-4.359,19.125
		c-2.906,4.406-7.149,6.609-12.727,6.609c-5.532,0-9.756-2.197-12.674-6.592s-4.377-10.775-4.377-19.143s1.453-14.754,4.359-19.16
		C145.903,245.574,150.134,243.37,155.689,243.37z M155.689,289.812c7.312,0,10.969-6.891,10.969-20.672
		c0-13.805-3.656-20.707-10.969-20.707c-3.563,0-6.275,1.787-8.139,5.361c-1.863,3.574-2.795,8.689-2.795,15.346
		c0,6.727,0.926,11.854,2.777,15.381C149.384,288.048,152.103,289.812,155.689,289.812z"/>
	<path d="M213.24,278.316c0,5.742-1.166,9.938-3.498,12.586c-2.333,2.648-5.877,3.973-10.635,3.973
		c-9.586,0-14.379-5.473-14.379-16.418V244.32h5.766v33.609c0,7.922,2.871,11.883,8.613,11.883c2.883,0,4.998-0.938,6.346-2.812
		c1.348-1.875,2.021-4.922,2.021-9.141V244.32h5.766V278.316z"/>
	<path d="M260.419,248.995h-15.293v44.93h-5.73v-44.93h-15.363v-4.676h36.387V248.995z"/>
	<path d="M56.759,330.719h12.586c4.758,0,8.566,1.195,11.426,3.586c2.859,2.391,4.289,5.684,4.289,9.878
		c0,4.219-1.424,7.588-4.271,10.107s-6.58,3.779-11.197,3.779h-7.066v22.254h-5.766V330.719z M62.525,353.043h6.258
		c6.773,0,10.16-2.836,10.16-8.508c0-2.625-0.92-4.746-2.76-6.363c-1.84-1.617-4.213-2.426-7.119-2.426h-6.539V353.043z"/>
	<path d="M125.876,380.324h-25.91v-49.605h25.699v5.027h-19.934v15.363h19.16v5.027h-19.16v19.16h20.145V380.324z"/>
	<path d="M175.447,380.324h-7.207l-14.555-22.535h-6.398v22.535h-5.766v-49.605h14.027c4.711,0,8.432,1.143,11.162,3.428
		c2.73,2.285,4.096,5.467,4.096,9.544c0,3.023-0.997,5.713-2.988,8.068c-1.992,2.355-4.734,3.955-8.227,4.799L175.447,380.324z
		 M147.286,352.762h7.277c3.046,0,5.52-0.826,7.418-2.479s2.848-3.732,2.848-6.24c0-5.531-3.375-8.296-10.125-8.296h-7.418V352.762z
		"/>
	<path d="M209.548,336.203c-2.953-1.008-5.754-1.512-8.402-1.512c-3,0-5.444,0.686-7.33,2.057c-1.887,1.371-2.83,3.322-2.83,5.854
		c0,3,2.473,5.636,7.418,7.91c3.656,1.688,6.076,2.859,7.26,3.516c1.183,0.656,2.385,1.559,3.604,2.707
		c1.218,1.148,2.197,2.502,2.936,4.061s1.107,3.311,1.107,5.256c0,4.828-1.623,8.572-4.869,11.232
		c-3.247,2.66-7.072,3.99-11.479,3.99c-4.266,0-8.004-0.844-11.215-2.531l1.195-4.957c3.773,1.711,7.066,2.566,9.879,2.566
		c3.281,0,5.912-0.85,7.893-2.549c1.98-1.699,2.971-4.037,2.971-7.014c0-2.203-0.645-4.072-1.934-5.607
		c-1.289-1.535-3.668-3.1-7.137-4.693c-3.563-1.641-5.866-2.76-6.908-3.357c-1.043-0.598-2.08-1.424-3.111-2.479
		c-1.032-1.055-1.828-2.238-2.391-3.551s-0.844-2.742-0.844-4.289c0-4.102,1.477-7.301,4.43-9.598s6.691-3.445,11.215-3.445
		c3.305,0,6.586,0.504,9.844,1.512L209.548,336.203z"/>
	<path d="M229.587,330.719h12.586c4.758,0,8.566,1.195,11.426,3.586c2.859,2.391,4.289,5.684,4.289,9.878
		c0,4.219-1.424,7.588-4.271,10.107c-2.848,2.52-6.58,3.779-11.197,3.779h-7.066v22.254h-5.766V330.719z M235.353,353.043h6.258
		c6.773,0,10.16-2.836,10.16-8.508c0-2.625-0.92-4.746-2.76-6.363c-1.84-1.617-4.213-2.426-7.119-2.426h-6.539V353.043z"/>
	<path d="M298.704,380.324h-25.91v-49.605h25.699v5.027H278.56v15.363h19.16v5.027h-19.16v19.16h20.145V380.324z"/>
	<path d="M344.654,377.23c-3.891,2.695-8.402,4.043-13.535,4.043c-6.422,0-11.303-2.203-14.643-6.609s-5.01-10.781-5.01-19.125
		c0-8.062,1.617-14.373,4.852-18.931s8.168-6.838,14.801-6.838c2.391,0,4.758,0.305,7.102,0.914s4.23,1.418,5.66,2.426l-1.898,4.535
		c-3.305-1.875-6.926-2.812-10.863-2.812c-4.57,0-7.969,1.658-10.195,4.975c-2.227,3.316-3.34,8.56-3.34,15.732
		c0,13.781,4.512,20.672,13.535,20.672c3.82,0,7.734-1.172,11.742-3.516L344.654,377.23z"/>
	<path d="M390.04,335.395h-15.293v44.929h-5.73v-44.929h-15.363v-4.676h36.387V335.395z"/>
	<path d="M426.04,380.324h-22.535v-5.027h8.543v-39.55h-8.543v-5.027h22.535v5.027h-8.227v39.55h8.227V380.324z"/>
	<path d="M477.79,330.719l-16.172,49.605h-6.926l-16.207-49.605h6.047l13.605,42.925l13.676-42.925H477.79z"/>
	<path d="M514.74,380.324h-25.91v-49.605h25.699v5.027h-19.934v15.363h19.16v5.027h-19.16v19.16h20.145V380.324z"/>
</g>
<g>
	<path class="st1" d="M56.759,378.319l5.766,0.025l-0.097,22.254l7.066,0.03c4.617,0.021,8.344,1.297,11.181,3.828
		c2.836,2.532,4.246,5.907,4.227,10.126c-0.019,4.195-1.462,7.482-4.332,9.86c-2.871,2.378-6.684,3.557-11.441,3.536l-12.586-0.055
		L56.759,378.319z M62.33,422.923l6.539,0.028c2.906,0.013,5.282-0.786,7.13-2.395c1.847-1.609,2.776-3.727,2.788-6.352
		c0.024-5.672-3.35-8.522-10.123-8.552l-6.258-0.027L62.33,422.923z"/>
	<path class="st1" d="M125.854,383.648l-20.145-0.088l-0.084,19.16l19.16,0.084l-0.021,5.027l-19.16-0.084l-0.067,15.363
		l19.934,0.087l-0.022,5.027l-25.699-0.112l0.218-49.605l25.91,0.113L125.854,383.648z"/>
	<path class="st1" d="M159.487,402.534c3.488,0.859,6.224,2.471,8.206,4.835c1.98,2.364,2.965,5.058,2.951,8.081
		c-0.018,4.078-1.396,7.254-4.136,9.527c-2.74,2.273-6.467,3.399-11.178,3.379l-14.027-0.062l0.218-49.605l5.766,0.025
		l-0.099,22.535l6.398,0.028l14.653-22.472l7.206,0.031L159.487,402.534z M147.091,423.293l7.418,0.032
		c6.75,0.03,10.137-2.721,10.161-8.252c0.011-2.508-0.929-4.593-2.82-6.253c-1.892-1.661-4.36-2.498-7.407-2.511l-7.277-0.032
		L147.091,423.293z"/>
	<path class="st1" d="M210.633,428.036c-3.263,0.993-6.546,1.483-9.851,1.469c-4.523-0.021-8.257-1.185-11.199-3.494
		c-2.943-2.311-4.406-5.516-4.388-9.617c0.006-1.547,0.294-2.976,0.862-4.286c0.568-1.31,1.37-2.489,2.406-3.54
		c1.035-1.05,2.076-1.872,3.122-2.465c1.045-0.593,3.353-1.702,6.923-3.327c3.476-1.578,5.861-3.133,7.157-4.662
		s1.948-3.396,1.958-5.599c0.013-2.977-0.967-5.319-2.94-7.027c-1.973-1.708-4.6-2.568-7.881-2.583
		c-2.812-0.013-6.109,0.829-9.891,2.523l-1.174-4.963c3.219-1.673,6.961-2.5,11.227-2.481c4.406,0.019,8.227,1.366,11.461,4.04
		c3.234,2.675,4.841,6.426,4.82,11.254c-0.009,1.945-0.386,3.695-1.131,5.251s-1.729,2.904-2.953,4.048
		c-1.224,1.143-2.429,2.04-3.615,2.691c-1.187,0.65-3.611,1.812-7.275,3.483c-4.955,2.252-7.439,4.878-7.452,7.878
		c-0.012,2.531,0.924,4.486,2.804,5.866c1.881,1.379,4.321,2.075,7.321,2.088c2.648,0.012,5.451-0.479,8.409-1.475L210.633,428.036z
		"/>
	<path class="st1" d="M229.586,379.075l5.766,0.025l-0.098,22.254l7.066,0.03c4.617,0.021,8.344,1.297,11.181,3.828
		c2.837,2.532,4.246,5.908,4.228,10.127c-0.019,4.195-1.463,7.481-4.333,9.859c-2.869,2.378-6.684,3.557-11.441,3.536l-12.586-0.055
		L229.586,379.075z M235.157,423.679l6.539,0.028c2.906,0.013,5.283-0.785,7.13-2.395s2.776-3.727,2.787-6.352
		c0.025-5.672-3.35-8.522-10.123-8.552l-6.258-0.027L235.157,423.679z"/>
	<path class="st1" d="M298.68,384.404l-20.145-0.088l-0.084,19.16l19.16,0.084l-0.021,5.027l-19.16-0.084l-0.067,15.363
		l19.934,0.087l-0.022,5.027l-25.699-0.112l0.218-49.605l25.91,0.113L298.68,384.404z"/>
	<path class="st1" d="M342.824,387.199c-3.997-2.361-7.906-3.55-11.727-3.566c-9.023-0.04-13.565,6.831-13.625,20.612
		c-0.032,7.172,1.059,12.421,3.271,15.747s5.604,4.999,10.174,5.02c3.938,0.017,7.562-0.905,10.875-2.766l1.879,4.544
		c-1.434,1.001-3.324,1.802-5.671,2.4c-2.347,0.6-4.715,0.894-7.105,0.884c-6.633-0.029-11.557-2.33-14.771-6.903
		c-3.215-4.572-4.805-10.891-4.769-18.953c0.036-8.344,1.733-14.711,5.093-19.103s8.25-6.573,14.672-6.545
		c5.133,0.022,9.639,1.39,13.518,4.102L342.824,387.199z"/>
	<path class="st1" d="M389.82,429.382l-36.386-0.159l0.021-4.676l15.363,0.067l0.197-44.93l5.729,0.025l-0.197,44.93l15.293,0.066
		L389.82,429.382z"/>
	<path class="st1" d="M426.015,384.962l-8.227-0.036l-0.173,39.551l8.227,0.036l-0.022,5.027l-22.535-0.099l0.022-5.027l8.543,0.037
		l0.173-39.551l-8.543-0.037l0.022-5.027l22.535,0.099L426.015,384.962z"/>
	<path class="st1" d="M471.593,429.74l-13.487-42.986l-13.794,42.866l-6.047-0.026l16.425-49.534l6.926,0.03l15.953,49.676
		L471.593,429.74z"/>
	<path class="st1" d="M514.713,385.349l-20.145-0.088l-0.084,19.16l19.16,0.084l-0.021,5.027l-19.16-0.084l-0.067,15.363
		l19.934,0.087l-0.022,5.027l-25.699-0.112l0.218-49.605l25.91,0.113L514.713,385.349z"/>
</g>
<line class="st2" x1="334.828" y1="487.504" x2="261.725" y2="582.331"/>
<line class="st2" x1="360.944" y1="487.504" x2="287.841" y2="582.331"/>
<line class="st2" x1="386.806" y1="487.504" x2="313.703" y2="582.331"/>
<line class="st2" x1="416.979" y1="487.504" x2="343.875" y2="582.331"/>
<line class="st2" x1="444.565" y1="487.504" x2="371.461" y2="582.331"/>
<line class="st2" x1="470.863" y1="487.504" x2="397.759" y2="582.331"/>
<line class="st2" x1="498.013" y1="487.504" x2="424.91" y2="582.331"/>
<line class="st2" x1="523.875" y1="487.504" x2="450.772" y2="582.331"/>
<line class="st2" x1="548.875" y1="487.504" x2="475.772" y2="582.331"/>
<line class="st2" x1="572.151" y1="487.504" x2="499.048" y2="582.331"/>
<line class="st2" x1="598.875" y1="487.504" x2="525.772" y2="582.331"/>
<line class="st2" x1="625.69" y1="487.504" x2="552.587" y2="582.331"/>
<line class="st2" x1="650.605" y1="487.504" x2="577.501" y2="582.331"/>
<line class="st2" x1="673.875" y1="487.504" x2="600.772" y2="582.331"/>
</svg>